<?xml version="1.0" standalone="no"?>
<!DOCTYPE svg PUBLIC "-//W3C//DTD SVG 20010904//EN"
 "http://www.w3.org/TR/2001/REC-SVG-20010904/DTD/svg10.dtd">
<svg version="1.0" xmlns="http://www.w3.org/2000/svg"
 width="200.000000pt" height="175.000000pt" viewBox="0 0 200.000000 175.000000"
 preserveAspectRatio="xMidYMid meet">

<g transform="translate(0.000000,175.000000) scale(0.100000,-0.100000)"
fill="#000000" stroke="none">
<path d="M772 1586 c-98 -32 -128 -76 -117 -170 12 -109 61 -181 109 -163 23
9 19 42 -6 60 -51 33 -8 183 63 221 l35 19 55 -26 c30 -14 83 -31 119 -38 36
-7 69 -16 74 -20 5 -5 -43 -95 -109 -205 -140 -233 -201 -361 -289 -597 -75
-203 -118 -292 -174 -362 -48 -60 -130 -106 -202 -113 -44 -4 -52 -1 -78 25
-44 43 -58 121 -44 247 10 88 16 110 61 200 84 169 208 298 288 300 20 1 38
-4 40 -10 2 -5 -10 -30 -26 -55 -16 -24 -31 -53 -35 -64 -5 -19 -2 -20 37 -17
76 6 107 36 107 105 -1 112 -114 137 -231 51 -93 -68 -223 -253 -275 -390 -70
-186 -43 -367 64 -435 38 -24 56 -29 110 -29 37 0 96 9 136 21 63 19 78 28
141 93 88 89 140 181 211 372 106 288 167 440 229 569 64 136 155 284 211 347
18 20 38 46 44 58 11 21 10 22 -13 16 -14 -3 -48 -20 -76 -37 -43 -27 -56 -30
-103 -26 -29 2 -82 17 -118 32 -77 34 -172 42 -238 21z"/>
<path d="M1320 1118 c-50 -25 -60 -33 -43 -35 12 -3 33 3 47 13 33 21 46 11
81 -59 41 -82 36 -144 -20 -242 -65 -114 -104 -150 -186 -170 -34 -9 -59 16
-59 59 0 46 20 60 75 52 45 -7 45 -7 45 23 0 56 -77 71 -122 24 -55 -58 -60
-129 -12 -174 22 -20 36 -24 88 -24 54 0 70 5 106 30 24 17 66 59 93 94 l50
63 14 -51 c38 -149 94 -172 191 -78 45 44 142 160 142 171 0 23 -37 -5 -100
-75 -79 -87 -104 -96 -127 -48 -17 35 -37 173 -29 203 9 36 92 142 131 166 39
24 59 18 93 -25 27 -34 32 -32 32 13 0 53 -32 82 -89 82 -56 0 -74 -10 -153
-88 -46 -45 -69 -61 -72 -51 -33 106 -65 159 -94 159 -9 0 -46 -14 -82 -32z"/>
</g>
</svg>
